<svg xmlns="http://www.w3.org/2000/svg" width="14" height="11" viewBox="0 0 14 11">
  <defs>
    <style>
      .cls-1 {
        fill: #4bb8f0;
        fill-rule: evenodd;
      }
    </style>
  </defs>
  <path id="twi" class="cls-1" d="M756,2655.3a6.032,6.032,0,0,1-1.65.44,2.8,2.8,0,0,0,1.263-1.54,5.98,5.98,0,0,1-1.824.68,2.918,2.918,0,0,0-2.1-.88,2.825,2.825,0,0,0-2.873,2.78,2.7,2.7,0,0,0,.075.63,8.266,8.266,0,0,1-5.921-2.9,2.7,2.7,0,0,0-.389,1.39,2.761,2.761,0,0,0,1.278,2.32,2.985,2.985,0,0,1-1.3-.35v0.03a2.812,2.812,0,0,0,2.3,2.73,3.133,3.133,0,0,1-.757.09,2.413,2.413,0,0,1-.54-0.05,2.853,2.853,0,0,0,2.683,1.93,5.859,5.859,0,0,1-3.568,1.19,5.185,5.185,0,0,1-.685-0.04,8.318,8.318,0,0,0,4.4,1.25,7.976,7.976,0,0,0,8.173-7.9q0-.18-0.009-0.36A5.656,5.656,0,0,0,756,2655.3" transform="translate(-742 -2654)"/>
</svg>
